<svg width="1073" height="411" viewBox="0 0 1073 411" fill="none" xmlns="http://www.w3.org/2000/svg">
<path d="M154.231 164.799V198.513H97.2662V355.198H57.223V198.513H0V164.799H154.231Z" fill="black"/>
<path d="M222.092 211.043C222.781 211.043 223.341 211.086 223.772 211.172C224.288 211.172 225.365 211.215 227.001 211.301V249.019C224.676 248.761 222.609 248.588 220.801 248.502C218.992 248.416 217.528 248.373 216.409 248.373C201.597 248.373 191.651 253.195 186.57 262.84C183.728 268.266 182.308 276.619 182.308 287.9V355.198H145.235V214.401H180.37V238.944C186.053 229.557 191.005 223.142 195.225 219.697C202.114 213.927 211.07 211.043 222.092 211.043Z" fill="black"/>
<path d="M427.74 211.043C413.187 211.043 401.303 214.875 392.089 222.539C382.789 230.117 378.138 242.733 378.138 260.386V355.198H415.856V269.557C415.856 262.151 416.847 256.468 418.827 252.507C422.444 245.273 429.333 241.656 439.495 241.656C451.981 241.656 460.55 246.952 465.2 257.544C467.611 263.142 468.817 270.289 468.817 278.987V355.198H505.502V214.659H469.979V235.198C465.243 227.964 460.765 222.754 456.546 219.568C448.967 213.884 439.366 211.043 427.74 211.043Z" fill="black"/>
<path d="M584.73 328.072C597.389 328.072 606.388 322.647 611.727 311.796C615.172 304.649 616.894 295.607 616.894 284.67C616.894 276.059 615.43 268.352 612.502 261.549C607.249 249.32 598.035 243.206 584.859 243.206C575.559 243.206 568.067 246.78 562.383 253.927C556.786 261.075 553.987 271.925 553.987 286.479C553.987 296.21 555.279 304.175 557.863 310.375C562.685 322.173 571.641 328.072 584.73 328.072ZM575.43 210.784C587.141 210.784 596.614 213.669 603.848 219.439C608.067 222.711 612.373 228.093 616.765 235.585V214.659H652.287V411H615.861V337.76C613.105 343.443 608.369 348.524 601.652 353.002C595.021 357.394 585.936 359.59 574.396 359.59C558.121 359.59 544.256 353.088 532.803 340.085C521.35 327.082 515.623 309.73 515.623 288.029C515.623 264.606 521.35 245.876 532.803 231.839C544.343 217.802 558.551 210.784 575.43 210.784Z" fill="black"/>
<path d="M708.911 214.401V299.267C708.911 307.275 709.858 313.303 711.752 317.351C715.111 324.498 721.699 328.072 731.516 328.072C744.088 328.072 752.7 322.991 757.35 312.83C759.761 307.318 760.967 300.042 760.967 291V214.401H798.297V355.198H762.517V335.306C762.172 335.736 761.311 337.028 759.933 339.181C758.555 341.334 756.919 343.228 755.025 344.864C749.255 350.031 743.658 353.562 738.232 355.456C732.893 357.351 726.607 358.298 719.373 358.298C698.534 358.298 684.497 350.806 677.264 335.822C673.216 327.555 671.193 315.37 671.193 299.267V214.401H708.911Z" fill="black"/>
<path d="M916.065 411H879.252V214.659H916.065V411Z" fill="black"/>
<path d="M1000.72 329.234C1011.48 329.234 1019.75 325.402 1025.52 317.738C1031.29 310.074 1034.17 299.181 1034.17 285.058C1034.17 270.935 1031.29 260.085 1025.52 252.507C1019.75 244.842 1011.48 241.01 1000.72 241.01C989.955 241.01 981.645 244.842 975.789 252.507C970.02 260.085 967.135 270.935 967.135 285.058C967.135 299.181 970.02 310.074 975.789 317.738C981.645 325.402 989.955 329.234 1000.72 329.234ZM1072.8 285.058C1072.8 305.725 1066.86 323.422 1054.97 338.147C1043.09 352.787 1025.05 360.106 1000.85 360.106C976.65 360.106 958.609 352.787 946.726 338.147C934.842 323.422 928.9 305.725 928.9 285.058C928.9 264.735 934.842 247.124 946.726 232.227C958.609 217.329 976.65 209.88 1000.85 209.88C1025.05 209.88 1043.09 217.329 1054.97 232.227C1066.86 247.124 1072.8 264.735 1072.8 285.058Z" fill="black"/>
<path d="M296.71 243.077C309.369 243.077 318.368 248.502 323.707 259.353C327.152 266.5 328.874 275.542 328.874 286.479C328.874 295.09 327.41 302.797 324.482 309.6C319.229 321.829 310.015 327.943 296.84 327.943C287.539 327.943 280.047 324.369 274.364 317.221C268.766 310.074 265.968 299.224 265.968 284.67C265.968 274.939 267.259 266.974 269.843 260.773C274.665 248.976 283.621 243.077 296.71 243.077ZM287.41 360.365C299.122 360.365 308.594 357.48 315.828 351.71C320.047 348.438 324.353 343.056 328.745 335.564V356.49H364.267V214.659H328.745L327.841 233.389C325.085 227.706 320.349 222.625 313.632 218.147C307.001 213.755 297.916 211.559 286.377 211.559C270.101 211.559 256.237 218.061 244.783 231.064C233.33 244.067 227.604 261.419 227.604 283.12C227.604 306.543 233.33 325.273 244.783 339.31C256.323 353.346 270.532 360.365 287.41 360.365Z" fill="black"/>
<path d="M584.59 83.9281C597.249 83.9281 606.248 89.3533 611.587 100.204C615.031 107.351 616.754 116.393 616.754 127.33C616.754 135.941 615.29 143.648 612.362 150.451C607.109 162.68 597.895 168.794 584.719 168.794C575.419 168.794 567.927 165.22 562.243 158.073C556.646 150.925 553.847 140.075 553.847 125.521C553.847 115.79 555.139 107.825 557.722 101.625C562.545 89.8269 571.501 83.9281 584.59 83.9281ZM575.29 201.216C587.001 201.216 596.474 198.331 603.707 192.561C607.927 189.289 612.233 183.907 616.625 176.415V197.341H652.147V56.5437L616.754 56.8021L615.72 74.2402C612.965 68.5567 608.228 63.4759 601.511 58.998C594.881 54.6062 585.796 52.4103 574.256 52.4103C557.981 52.4103 544.116 58.9119 532.663 71.9152C521.21 84.9184 515.483 102.27 515.483 123.971C515.483 147.394 521.21 166.124 532.663 180.161C544.202 194.197 558.411 201.216 575.29 201.216Z" fill="black"/>
<path d="M708.77 197.599V112.733C708.77 104.725 709.718 98.6967 711.612 94.6493C714.971 87.5018 721.558 83.9281 731.375 83.9281C743.948 83.9281 752.56 89.0089 757.21 99.1703C759.621 104.682 760.826 111.958 760.826 121V197.599H798.157V56.8021H762.376V76.6945C762.032 76.2639 761.171 74.9722 759.793 72.8194C758.415 70.6665 756.779 68.772 754.885 67.1358C749.115 61.9689 743.518 58.4383 738.092 56.5437C732.753 54.6492 726.467 53.702 719.233 53.702C698.394 53.702 684.357 61.1939 677.123 76.1778C673.076 84.4448 671.052 96.63 671.052 112.733V197.599H708.77Z" fill="black"/>
<path d="M819.775 197.599H857.106V108.587V30.8236H819.775V108.587V197.599Z" fill="black"/>
<path d="M1000.58 82.7656C1011.34 82.7656 1019.61 86.5976 1025.38 94.2618C1031.15 101.926 1034.03 112.819 1034.03 126.942C1034.03 141.065 1031.15 151.915 1025.38 159.493C1019.61 167.158 1011.34 170.99 1000.58 170.99C989.815 170.99 981.505 167.158 975.649 159.493C969.879 151.915 966.995 141.065 966.995 126.942C966.995 112.819 969.879 101.926 975.649 94.2618C981.505 86.5976 989.815 82.7656 1000.58 82.7656ZM1072.66 126.942C1072.66 106.275 1066.72 88.5783 1054.83 73.8527C1042.95 59.2133 1024.91 51.8936 1000.71 51.8936C976.51 51.8936 958.469 59.2133 946.585 73.8527C934.702 88.5783 928.76 106.275 928.76 126.942C928.76 147.265 934.702 164.876 946.585 179.773C958.469 194.671 976.51 202.12 1000.71 202.12C1024.91 202.12 1042.95 194.671 1054.83 179.773C1066.72 164.876 1072.66 147.265 1072.66 126.942Z" fill="black"/>
<path d="M437.805 83.9281C450.464 83.9281 459.462 89.3533 464.802 100.204C468.246 107.351 469.968 116.393 469.968 127.33C469.968 135.941 468.504 143.648 465.577 150.451C460.324 162.68 451.109 168.794 437.934 168.794C428.634 168.794 421.142 165.22 415.458 158.073C409.861 150.925 407.062 140.075 407.062 125.521C407.062 115.79 408.354 107.825 410.937 101.625C415.759 89.8269 424.715 83.9281 437.805 83.9281ZM428.504 201.216C440.216 201.216 449.688 198.331 456.922 192.561C461.142 189.289 465.447 183.907 469.839 176.415V197.341H505.361V1H468.935V74.2402C466.179 68.5567 461.443 63.4759 454.726 58.998C448.095 54.6062 439.01 52.4103 427.471 52.4103C411.195 52.4103 397.331 58.9119 385.878 71.9152C374.425 84.9184 368.698 102.27 368.698 123.971C368.698 147.394 374.425 166.124 385.878 180.161C397.417 194.197 411.626 201.216 428.504 201.216Z" fill="black"/>
<path d="M819.775 197.599H857.106V108.587V30.8236H819.775V108.587V197.599Z" fill="black"/>
<path d="M915.925 197.002L879.111 197.599V1.00001H915.925V197.002Z" fill="black"/>
<path d="M819.775 381.435H857.106V292.423V214.659H819.775V292.423V381.435Z" fill="black"/>
<path d="M819.775 381.435H857.106V292.423V214.659H819.775V292.423V381.435Z" fill="black"/>
</svg>
